<svg version="1.1" id="Layer_1" xmlns="http://www.w3.org/2000/svg" xmlns:xlink="http://www.w3.org/1999/xlink" x="0px" y="0px"
	 width="100%" viewBox="0 0 1024 1024" enable-background="new 0 0 1024 1024" xml:space="preserve">
<path fill="#000000" opacity="1.000000" stroke="none" 
	d="
M113.650322,612.999878 
	C113.650513,490.170502 113.645073,367.841125 113.655540,245.511734 
	C113.658119,215.375900 139.024780,187.888504 169.206512,185.660690 
	C195.653198,183.708588 222.161789,185.357880 248.635803,184.772415 
	C251.354584,184.712296 252.665741,185.544739 252.392624,188.490952 
	C251.610962,196.923233 250.981232,205.369492 250.233521,213.805099 
	C249.933197,217.193237 247.193451,216.324966 245.229095,216.329834 
	C222.729965,216.385712 200.230637,216.359711 177.731369,216.361435 
	C163.002777,216.362564 151.734497,224.025131 146.561066,237.721664 
	C145.150391,241.456375 144.332565,245.360703 144.332886,249.416504 
	C144.348541,456.076477 144.303818,662.736450 144.419693,869.396362 
	C144.431625,890.677917 162.159103,901.919189 176.472778,901.907288 
	C399.297729,901.721985 622.123047,901.943176 844.948303,902.062378 
	C865.302917,902.073303 878.627136,888.678101 878.653870,868.283203 
	C878.807983,750.787476 878.617859,633.289795 879.242981,515.796570 
	C879.712036,427.636963 879.352844,339.479401 879.617188,251.321335 
	C879.671204,233.303589 869.510376,220.483398 852.463501,216.885910 
	C850.373657,216.444870 848.173401,216.391098 846.024048,216.388611 
	C821.024841,216.359756 796.024475,216.246414 771.027527,216.486649 
	C765.970520,216.535233 764.476135,215.051102 764.510254,209.996384 
	C764.554749,203.388397 763.636292,196.755859 762.850708,190.167435 
	C762.412842,186.494629 763.012024,184.601562 767.348694,184.621796 
	C794.847168,184.750107 822.380554,183.825180 849.836670,184.910522 
	C880.876831,186.137543 904.639648,208.694778 909.461670,237.900558 
	C910.174866,242.220200 910.337646,246.490158 910.337830,250.808762 
	C910.345154,457.468750 910.352234,664.128784 910.337036,870.788757 
	C910.334534,905.292725 882.187134,933.359253 847.630127,933.360229 
	C624.137329,933.366882 400.644379,933.220825 177.152023,933.526978 
	C147.757355,933.567200 118.235474,912.948303 113.807236,877.483215 
	C113.540382,875.346069 113.657043,873.156494 113.656883,870.991272 
	C113.650322,785.160828 113.650902,699.330383 113.650322,612.999878 
z"/>
<path fill="#000000" opacity="1.000000" stroke="none" 
	d="
M251.168930,816.902466 
	C356.478394,816.901001 461.310730,816.897827 566.143066,816.893738 
	C567.143005,816.893738 568.143311,816.894531 569.142883,816.871582 
	C578.944031,816.646362 583.012085,812.597717 583.080383,802.685852 
	C583.165344,790.353333 583.088379,778.019775 583.085815,765.686646 
	C583.067078,674.687805 583.053955,583.689026 583.025818,492.690186 
	C583.022400,481.692596 579.627136,478.262360 568.767517,478.258575 
	C535.434509,478.247009 502.101471,478.256317 468.768463,478.274780 
	C465.929596,478.276367 463.141632,478.143188 460.359833,477.409088 
	C453.084961,475.489288 448.475586,469.520355 448.672119,462.045197 
	C448.862488,454.805603 453.643005,449.074493 460.840088,447.639771 
	C463.110809,447.187103 465.446136,446.823029 467.752472,446.819885 
	C501.752045,446.773499 535.751831,446.764435 569.751404,446.817383 
	C581.087219,446.835052 591.503540,449.669128 600.048706,457.592163 
	C609.297485,466.167542 614.328979,476.700409 614.331909,489.400574 
	C614.356262,594.066345 614.354004,698.732117 614.343933,803.397888 
	C614.341431,828.845154 594.873962,848.284058 569.386902,848.286133 
	C462.721161,848.294739 356.055420,848.293579 249.389694,848.276062 
	C223.306961,848.271729 204.661163,829.633484 204.659286,803.598938 
	C204.651779,699.433167 204.650299,595.267395 204.665634,491.101593 
	C204.669434,465.353516 223.350189,446.767822 249.108932,446.785065 
	C271.608704,446.800110 294.108551,446.772919 316.608124,446.843262 
	C319.248596,446.851532 321.926849,447.161865 324.519562,447.675537 
	C331.547058,449.067841 336.127472,454.403442 336.331848,461.156555 
	C336.591858,469.747406 332.825958,475.259277 325.305328,477.348480 
	C322.713684,478.068420 320.088409,478.273346 317.403259,478.268951 
	C294.903534,478.231934 272.403687,478.227600 249.903900,478.247253 
	C240.126068,478.255798 236.325943,482.046570 236.324188,491.861145 
	C236.305664,595.526917 236.300400,699.192627 236.309540,802.858398 
	C236.310440,812.917297 240.373016,816.826599 251.168930,816.902466 
z"/>
<path fill="#000000" opacity="1.000000" stroke="none" 
	d="
M673.340942,381.564087 
	C657.009399,388.521790 640.358643,391.496338 622.966431,391.418793 
	C578.140076,391.218903 533.312134,391.407440 488.485077,391.308380 
	C484.428589,391.299408 481.211334,392.452393 477.893066,394.735077 
	C453.333984,411.629395 428.784485,428.544281 403.961548,445.045868 
	C389.106506,454.921051 370.690247,451.234985 361.155090,437.249542 
	C357.937469,432.530212 356.754272,427.237244 356.711884,421.656281 
	C356.637268,411.824829 356.533569,401.989105 356.754700,392.162201 
	C356.838135,388.455353 355.757843,386.595520 352.074280,385.292023 
	C308.646973,369.924591 282.149170,339.429932 272.109222,294.641296 
	C270.593384,287.879211 269.861694,280.819550 269.765564,273.883698 
	C269.469940,252.557358 269.010437,231.200760 269.784424,209.898407 
	C271.882904,152.140152 313.372101,105.174400 368.725311,96.537384 
	C376.160370,95.377258 383.640594,95.089897 391.092407,95.079575 
	C466.415253,94.975212 541.738525,95.130829 617.061218,95.001144 
	C641.370056,94.959290 664.880798,97.880875 686.222961,110.623077 
	C719.489807,130.484756 738.831787,159.599411 744.468018,197.958969 
	C745.348633,203.952881 745.309570,209.894379 745.325623,215.870438 
	C745.379395,235.867584 745.778076,255.876221 745.255920,275.859833 
	C744.288269,312.897552 728.512695,342.742126 699.823425,365.890137 
	C691.878479,372.300537 683.005249,377.251434 673.340942,381.564087 
M712.642761,195.769424 
	C708.814453,178.783722 701.038818,163.964279 688.530518,151.725128 
	C670.984863,134.557053 649.863708,126.393112 625.405579,126.399261 
	C545.740173,126.419296 466.074799,126.401421 386.409454,126.351387 
	C380.379791,126.347603 374.458771,127.057541 368.626465,128.429382 
	C329.693604,137.586899 301.648743,172.409851 301.293671,212.283432 
	C301.100739,233.947723 301.318176,255.615494 301.292542,277.281616 
	C301.287384,281.642151 301.845978,285.957275 302.935028,290.103577 
	C312.756714,327.497406 336.761932,350.206726 374.413940,358.577087 
	C382.861328,360.454987 387.219330,365.696075 387.359802,374.353790 
	C387.559723,386.677460 387.813080,399.000519 388.122589,411.321869 
	C388.161163,412.857727 387.571350,414.696777 389.689148,416.087830 
	C392.078888,414.552460 394.613800,413.003052 397.067902,411.334747 
	C419.521423,396.070679 441.987854,380.825287 464.386078,365.480408 
	C470.208069,361.491791 476.367096,359.527618 483.538483,359.552521 
	C530.370544,359.715302 577.203369,359.645111 624.035950,359.627014 
	C629.018494,359.625092 633.960266,359.416718 638.954651,358.818542 
	C680.445007,353.849243 714.566956,315.735474 714.656616,273.895325 
	C714.700562,253.395767 714.622375,232.895874 714.695984,212.396469 
	C714.715210,207.028625 713.756165,201.826569 712.642761,195.769424 
z"/>
<path fill="#000000" opacity="1.000000" stroke="none" 
	d="
M302.000061,713.661865 
	C348.628571,713.659851 394.757080,713.666748 440.885559,713.638855 
	C444.227356,713.636841 447.507874,713.833679 450.772491,714.638000 
	C457.623108,716.325745 462.278931,721.918640 462.318024,728.996460 
	C462.388794,741.818787 462.374390,754.641907 462.334595,767.464417 
	C462.304596,777.127258 456.171814,783.337891 446.391144,783.361572 
	C414.084747,783.439758 381.778137,783.423889 349.471588,783.423706 
	C326.324219,783.423645 303.176636,783.446228 280.029633,783.347229 
	C269.844330,783.303650 263.698822,776.954712 263.661682,766.686584 
	C263.618927,754.863220 263.627106,743.039490 263.658752,731.216003 
	C263.687744,720.390015 270.095367,713.883240 281.017242,713.692810 
	C287.842957,713.573792 294.672333,713.665161 302.000061,713.661865 
z"/>
<path fill="#000000" opacity="1.000000" stroke="none" 
	d="
M762.971008,678.648682 
	C767.112671,678.648254 770.760437,678.648254 775.056030,678.648254 
	C773.871094,675.770325 771.913147,674.263550 770.240662,672.580872 
	C754.149902,656.392761 737.936157,640.325134 721.982117,624.003540 
	C714.959778,616.819397 714.948975,608.601562 721.266968,602.324707 
	C727.592957,596.039917 737.373230,596.138428 744.140991,602.873108 
	C770.597961,629.200562 797.002808,655.580566 823.352661,682.015198 
	C830.502869,689.188354 830.814880,698.127563 823.613342,705.638123 
	C807.815430,722.113892 791.668457,738.255249 775.642883,754.512329 
	C765.467346,764.834961 755.236206,775.102844 745.067017,785.431702 
	C741.223145,789.335815 736.706360,791.394714 731.183350,790.722229 
	C724.806580,789.945862 720.231628,786.532715 718.302185,780.431152 
	C716.404053,774.428894 717.870789,768.952026 722.392578,764.381409 
	C738.095337,748.509155 753.778137,732.617004 769.455872,716.719910 
	C771.196777,714.954651 772.856323,713.109009 774.819702,711.017151 
	C772.857910,709.691467 771.011536,710.108826 769.330872,710.105530 
	C736.002380,710.041626 702.673767,710.042114 669.345337,709.973328 
	C666.023804,709.966492 662.688293,709.731750 659.384766,709.370056 
	C650.189209,708.362854 645.106750,701.847351 645.653625,691.945496 
	C646.074280,684.326965 652.401611,678.723877 660.990479,678.678711 
	C677.654480,678.591064 694.319275,678.651001 710.983704,678.650269 
	C728.148132,678.649597 745.312622,678.649475 762.971008,678.648682 
z"/>
<path fill="#000000" opacity="1.000000" stroke="none" 
	d="
M401.000122,647.634033 
	C446.982208,647.640442 492.464264,647.636841 537.946350,647.662659 
	C546.697693,647.667603 552.377869,651.736145 554.422546,659.300110 
	C556.638977,667.499878 551.599365,676.223206 543.369690,678.221069 
	C540.300171,678.966187 537.154297,679.226318 533.963501,679.224976 
	C450.663055,679.189575 367.362610,679.201843 284.062195,679.160583 
	C281.419586,679.159241 278.731354,678.906067 276.143250,678.381348 
	C267.577942,676.644897 262.943237,670.183044 263.679688,661.292908 
	C264.299133,653.815674 270.894745,647.847473 279.048340,647.687622 
	C286.875610,647.534180 294.708191,647.647339 302.538422,647.646240 
	C335.192322,647.641602 367.846191,647.638184 401.000122,647.634033 
z"/>
<path fill="#000000" opacity="1.000000" stroke="none" 
	d="
M297.000061,612.354736 
	C290.835602,612.350830 285.169067,612.440979 279.507080,612.320007 
	C271.090118,612.140198 264.295959,606.170166 263.680481,598.586670 
	C262.937805,589.436584 267.548584,583.392761 276.602448,581.369934 
	C278.917694,580.852661 281.208984,580.728516 283.538025,580.728394 
	C367.006256,580.723267 450.474518,580.725891 533.942749,580.705017 
	C536.791077,580.704346 539.567993,581.029541 542.358582,581.588379 
	C552.083679,583.535950 555.052307,590.845825 554.931885,597.740967 
	C554.795715,605.539978 548.332764,611.640991 540.405640,612.294739 
	C538.749878,612.431335 537.075378,612.351440 535.409485,612.351501 
	C456.106323,612.353821 376.803192,612.354004 297.000061,612.354736 
z"/>
<path fill="#000000" opacity="1.000000" stroke="none" 
	d="
M433.000122,514.647888 
	C468.489838,514.648987 503.479614,514.622253 538.469299,514.667725 
	C549.878235,514.682556 557.375122,524.293518 554.236328,534.683716 
	C552.208496,541.396423 546.757019,545.331421 539.104187,545.345459 
	C514.111572,545.391296 489.118866,545.370605 464.126221,545.368896 
	C402.644287,545.364807 341.162323,545.378784 279.680420,545.332764 
	C266.966827,545.323242 259.689087,533.469788 265.534729,522.365173 
	C268.355927,517.005859 273.005493,514.625610 279.045074,514.633423 
	C306.703552,514.669373 334.362122,514.648499 362.020660,514.648254 
	C385.513794,514.648071 409.006958,514.648193 433.000122,514.647888 
z"/>
<path fill="#000000" opacity="1.000000" stroke="none" 
	d="
M397.400818,179.304230 
	C436.396576,155.165237 484.083130,166.200989 507.652649,204.815720 
	C516.109558,218.671005 518.846924,234.034790 518.442749,250.229141 
	C518.027161,266.881104 513.756104,282.157013 503.618256,295.368286 
	C485.252014,319.302460 460.751190,328.816193 430.895447,325.556915 
	C398.332153,322.002075 370.048492,297.796570 364.036896,260.588043 
	C358.658539,227.299011 369.049469,199.591797 397.400818,179.304230 
M421.090210,291.406555 
	C441.176147,301.101379 465.033081,295.135040 478.055908,277.121643 
	C486.611267,265.287750 489.031250,252.073074 486.635559,237.850906 
	C483.732758,220.618347 475.100952,207.310318 458.754608,200.360901 
	C442.542236,193.468460 426.774078,195.206619 412.692352,206.122467 
	C387.896362,225.343781 386.238159,273.022339 421.090210,291.406555 
z"/>
<path fill="#000000" opacity="1.000000" stroke="none" 
	d="
M579.172058,273.372437 
	C571.365540,273.407135 571.356812,273.407135 571.353882,280.811584 
	C571.348877,293.142487 571.221252,305.475677 571.434021,317.802948 
	C571.505554,321.948608 570.100891,323.392090 565.975830,323.234161 
	C558.986938,322.966644 551.977905,322.999023 544.984192,323.177673 
	C541.252258,323.273041 539.593872,322.202271 539.603027,318.121429 
	C539.710999,270.297729 539.721313,222.473618 539.617493,174.649918 
	C539.608704,170.584320 541.172241,169.571930 544.922546,169.594467 
	C565.584412,169.718765 586.249634,169.466141 606.909363,169.711227 
	C628.831848,169.971283 649.224915,187.554916 653.197021,209.688416 
	C656.733154,229.392822 653.183228,247.273956 637.308350,260.934662 
	C627.165039,269.663208 614.642944,272.537323 601.638977,273.257874 
	C594.328796,273.662903 586.979187,273.357269 579.172058,273.372437 
M587.406006,244.657425 
	C592.265198,245.138214 597.000244,243.873871 601.811462,243.627716 
	C613.769043,243.015884 622.217651,234.312927 622.634460,222.332169 
	C623.053040,210.300690 614.852661,200.991318 602.973816,199.232086 
	C594.331482,197.952179 585.697021,198.757278 577.072449,198.333694 
	C573.359192,198.151321 572.057129,199.581467 572.119019,203.236786 
	C572.271118,212.223389 572.148132,221.214523 572.146545,230.203842 
	C572.144104,244.663620 572.147766,244.663620 587.406006,244.657425 
z"/>
</svg>